<?xml version="1.0" encoding="utf-8"?>
<!-- Generator: Adobe Illustrator 24.2.1, SVG Export Plug-In . SVG Version: 6.00 Build 0)  -->
<svg version="1.1" id="Capa_1" xmlns="http://www.w3.org/2000/svg" xmlns:xlink="http://www.w3.org/1999/xlink" x="0px" y="0px"
	 viewBox="0 0 241.41 223.76" style="enable-background:new 0 0 241.41 223.76;" xml:space="preserve">
<style type="text/css">
	.st0{fill:#095BA7;}
</style>
<g>
	<path class="st0" d="M221.78,61.92c6.61,10.31,10.2,22.92,10.71,35.76c0.57,12.88-1.9,25.97-6.55,38.23
		c-4.7,12.25-11.59,23.74-20.15,33.88c-8.51,10.2-18.74,19.07-30.11,26.23c-22.67,14.4-50.27,22.22-78.44,20.13
		c-14.05-1.05-28.27-4.66-41.47-11.48c-6.6-3.39-12.89-7.64-18.62-12.7c-5.73-5.05-10.84-10.95-15.09-17.44
		c-4.22-6.51-7.54-13.62-9.85-20.96c-2.28-7.36-3.54-14.92-3.91-22.39c-0.68-14.98,2.14-29.48,7.22-42.66
		C20.65,75.34,28,63.37,36.89,52.88c8.96-10.44,19.47-19.43,31.14-26.43c5.84-3.51,11.96-6.49,18.24-9
		c6.31-2.45,12.79-4.4,19.37-5.71c6.57-1.32,13.21-2.15,19.85-2.34c6.64-0.16,13.26,0.22,19.76,1.19c6.49,1.02,12.88,2.55,19.01,4.7
		c6.12,2.21,12.02,4.91,17.49,8.26c11,6.56,20.33,15.59,26.72,26l-0.75,0.66c-9.52-7.44-19.94-12.84-30.79-16.01
		c-10.83-3.2-21.97-4.41-32.85-3.8c-5.44,0.27-10.82,0.94-16.07,2.08c-5.25,1.13-10.39,2.59-15.33,4.49
		c-4.94,1.91-9.72,4.1-14.26,6.68c-4.54,2.57-8.86,5.48-12.95,8.64c-4.09,3.17-7.9,6.67-11.45,10.39
		c-3.56,3.71-6.83,7.66-9.79,11.81c-5.87,8.32-10.51,17.38-13.55,26.69c-2.99,9.31-4.32,18.86-3.62,27.78
		c0.32,4.46,1.15,8.76,2.49,12.8c1.3,4.06,3.14,7.85,5.41,11.38c2.27,3.53,5.05,6.76,8.24,9.68c3.17,2.94,6.82,5.49,10.79,7.7
		c7.94,4.42,17.21,7.31,26.94,8.62c9.74,1.29,19.94,1.05,30.02-0.68c10.11-1.67,20.06-4.96,29.58-9.43
		c18.99-8.98,36.03-23.29,47.74-41.75c5.86-9.21,10.29-19.47,12.67-30.46c2.36-10.98,2.52-22.71-0.08-34.5L221.78,61.92z"/>
</g>
</svg>
